HIERARCHY
ROOT Hips
{
	OFFSET 0.00000 0.00000 0.00000
	CHANNELS 6 Xposition Yposition Zposition Zrotation Yrotation Xrotation 
	JOINT LHipJoint
	{
		OFFSET 0 0 0
		CHANNELS 3 Zrotation Yrotation Xrotation
		JOINT LeftUpLeg
		{
			OFFSET 1.36306 -1.79463 0.83929
			CHANNELS 3 Zrotation Yrotation Xrotation
			JOINT LeftLeg
			{
				OFFSET 2.44811 -6.72613 0.00000
				CHANNELS 3 Zrotation Yrotation Xrotation
				JOINT LeftFoot
				{
					OFFSET 2.56220 -7.03959 0.00000
					CHANNELS 3 Zrotation Yrotation Xrotation
					JOINT LeftToeBase
					{
						OFFSET 0.15764 -0.43311 2.32255
						CHANNELS 3 Zrotation Yrotation Xrotation
						End Site
						{
							OFFSET 0.00000 -0.00000 1.18966
						}
					}
				}
			}
		}
	}
	JOINT RHipJoint
	{
		OFFSET 0 0 0
		CHANNELS 3 Zrotation Yrotation Xrotation
		JOINT RightUpLeg
		{
			OFFSET -1.30552 -1.79463 0.83929
			CHANNELS 3 Zrotation Yrotation Xrotation
			JOINT RightLeg
			{
				OFFSET -2.54253 -6.98555 0.00000
				CHANNELS 3 Zrotation Yrotation Xrotation
				JOINT RightFoot
				{
					OFFSET -2.56826 -7.05623 0.00000
					CHANNELS 3 Zrotation Yrotation Xrotation
					JOINT RightToeBase
					{
						OFFSET -0.16473 -0.45259 2.36315
						CHANNELS 3 Zrotation Yrotation Xrotation
						End Site
						{
							OFFSET -0.00000 -0.00000 1.21082
						}
					}
				}
			}
		}
	}
	JOINT LowerBack
	{
		OFFSET 0 0 0
		CHANNELS 3 Zrotation Yrotation Xrotation
		JOINT Spine
		{
			OFFSET 0.02827 2.03559 -0.19338
			CHANNELS 3 Zrotation Yrotation Xrotation
			JOINT Spine1
			{
				OFFSET 0.05672 2.04885 -0.04275
				CHANNELS 3 Zrotation Yrotation Xrotation
				JOINT Neck
				{
					OFFSET 0 0 0
					CHANNELS 3 Zrotation Yrotation Xrotation
					JOINT Neck1
					{
						OFFSET -0.05417 1.74624 0.17202
						CHANNELS 3 Zrotation Yrotation Xrotation
						JOINT Head
						{
							OFFSET 0.10407 1.76136 -0.12397
							CHANNELS 3 Zrotation Yrotation Xrotation
							End Site
							{
								OFFSET 0.03720 1.77044 -0.06241
							}
						}
					}
				}
				JOINT LeftShoulder
				{
					OFFSET 0 0 0
					CHANNELS 3 Zrotation Yrotation Xrotation
					JOINT LeftArm
					{
						OFFSET 3.36241 1.20089 -0.31121
						CHANNELS 3 Zrotation Yrotation Xrotation
						JOINT LeftForeArm
						{
							OFFSET 4.98300 -0.00000 -0.00000
							CHANNELS 3 Zrotation Yrotation Xrotation
							JOINT LeftHand
							{
								OFFSET 3.48356 -0.00000 -0.00000
								CHANNELS 3 Zrotation Yrotation Xrotation
								JOINT LeftFingerBase
								{
									OFFSET 0 0 0
									CHANNELS 3 Zrotation Yrotation Xrotation
									JOINT LeftHandIndex1
									{
										OFFSET 0.71526 -0.00000 -0.00000
										CHANNELS 3 Zrotation Yrotation Xrotation
										End Site
										{
											OFFSET 0.57666 -0.00000 -0.00000
										}
									}
								}
								JOINT LThumb
								{
									OFFSET 0 0 0
									CHANNELS 3 Zrotation Yrotation Xrotation
									End Site
									{
										OFFSET 0.58547 -0.00000 0.58547
									}
								}
							}
						}
					}
				}
				JOINT RightShoulder
				{
					OFFSET 0 0 0
					CHANNELS 3 Zrotation Yrotation Xrotation
					JOINT RightArm
					{
						OFFSET -3.13660 1.37405 -0.40465
						CHANNELS 3 Zrotation Yrotation Xrotation
						JOINT RightForeArm
						{
							OFFSET -5.24190 -0.00000 -0.00000
							CHANNELS 3 Zrotation Yrotation Xrotation
							JOINT RightHand
							{
								OFFSET -3.44417 -0.00000 -0.00000
								CHANNELS 3 Zrotation Yrotation Xrotation
								JOINT RightFingerBase
								{
									OFFSET 0 0 0
									CHANNELS 3 Zrotation Yrotation Xrotation
									JOINT RightHandIndex1
									{
										OFFSET -0.62253 -0.00000 -0.00000
										CHANNELS 3 Zrotation Yrotation Xrotation
										End Site
										{
											OFFSET -0.50190 -0.00000 -0.00000
										}
									}
								}
								JOINT RThumb
								{
									OFFSET 0 0 0
									CHANNELS 3 Zrotation Yrotation Xrotation
									End Site
									{
										OFFSET -0.50956 -0.00000 0.50956
									}
								}
							}
						}
					}
				}
			}
		}
	}
}
MOTION
Frames: 14
Frame Time: 0.0129032
0.00 0.00 0.00 -38.3060 -39.6695 364.1960 0.0000 0.0000 0.0000 31.0297 -4.0717 -52.0563 24.7722 19.4450 104.0781 -0.0329 -10.1865 13.9678 0.0076 0.5631 1.5474 0.0000 0.0000 0.0000 25.8311 -0.3668 -18.2768 -13.3975 -18.9210 70.3557 -1.2356 -4.4520 20.0118 -0.0686 1.6895 -4.6482 18.6877 9.9184 36.9612 -1.4786 18.3991 10.0677 -16.0757 9.5756 -0.8160 33.7320 -10.0018 13.8752 -8.0789 -8.2424 12.9457 -7.2631 -2.7328 0.4809 0.0000 0.0000 0.0000 -58.0884 5.4023 70.4556 42.5807 -49.5267 -20.3813 -0.0000 -0.0000 3.0888 65.9518 -43.4096 -57.0025 -7.1250 0.0000 -0.0000 12.5575 -35.6364 -17.7369 0.0000 0.0000 0.0000 38.4529 9.0868 -59.6730 -106.8538 58.8990 -74.5419 0.0000 -0.0000 -38.4065 -29.6266 -4.8965 2.7790 7.1250 -0.0000 -0.0000 -2.4714 -35.5993 -0.5713
0.00 0.00 0.00 -39.0688 -39.9175 363.2610 0.0000 0.0000 0.0000 30.4666 -4.5285 -49.7512 24.5146 19.5042 103.3053 -0.0873 -10.1785 12.9916 0.0357 1.2204 3.3553 0.0000 0.0000 0.0000 24.5855 0.6880 -23.2680 -16.4762 -19.6996 79.6473 -0.8576 -4.8001 16.5436 -0.2274 3.0695 -8.4722 19.2928 9.7568 38.1084 -1.1636 18.5888 10.2917 -16.1503 9.6694 -0.8224 33.8305 -10.0670 13.5782 -8.5160 -8.4141 13.4608 -7.4376 -2.7741 0.6159 0.0000 -0.0000 0.0000 -58.9701 4.5612 70.2519 42.1388 -49.2872 -20.0457 -0.0000 -0.0000 3.8086 64.4124 -43.1892 -55.0211 -7.1250 0.0000 -0.0000 11.9923 -34.3275 -16.8612 0.0000 -0.0000 0.0000 38.8399 9.2609 -58.6924 -104.6913 59.1685 -72.6875 0.0000 -0.0000 -35.0564 -38.7062 -3.4812 2.7856 7.1250 -0.0000 -0.0000 -9.9443 -34.3044 -2.6435
0.00 0.00 0.00 -37.9717 -38.0644 359.4220 0.0000 0.0000 0.0000 28.1812 -5.6424 -48.7046 24.6715 19.4685 103.7758 -0.1407 -10.4653 12.4358 0.0006 -0.1564 -0.4298 0.0000 0.0000 0.0000 20.5210 2.2226 -33.0258 -22.0391 -19.9000 95.9716 -0.4688 -10.1834 13.1991 -0.2300 -3.0870 8.5212 19.7456 8.7454 38.9709 -0.5986 17.6074 11.1878 -15.4618 9.2813 -0.3968 32.7446 -10.4612 14.6993 -7.7904 -8.6709 12.8722 -6.9629 -2.9751 0.3053 -0.0000 0.0000 0.0000 -59.5424 3.3925 70.3284 43.7110 -50.1212 -21.2449 -0.0000 -0.0000 2.6896 60.2311 -43.4497 -50.2492 -7.1250 0.0000 -0.0000 10.0007 -31.6745 -13.8843 -0.0000 0.0000 0.0000 37.2872 10.3610 -59.1659 -101.2410 59.5171 -69.7192 0.0000 -0.0000 -33.0504 -30.6033 -6.7357 3.9685 7.1250 -0.0000 -0.0000 -3.2867 -37.7746 -0.5854
0.00 0.00 0.00 -22.6164 -30.3748 338.8890 0.0000 0.0000 0.0000 11.6098 -11.0215 -40.9086 24.0825 19.5956 102.0143 -0.0020 -6.7440 9.5702 0.0069 -0.5368 -1.4750 0.0000 0.0000 0.0000 7.5128 12.2903 -39.0270 -25.3533 -19.2986 105.8298 -0.1764 -5.8086 7.9492 -0.0429 -1.3373 3.6774 11.8929 9.4740 40.3740 0.1424 15.9103 12.3419 -11.0239 8.0674 -2.4149 26.5852 -9.0889 15.7838 -4.0038 -7.9648 19.2396 -5.1631 -2.3331 2.6352 0.0000 -0.0000 0.0000 -52.0703 9.1133 67.7917 73.6637 -58.9672 -45.9014 -0.0000 -0.0000 24.9075 44.3197 -19.7535 -18.2650 -7.1250 0.0000 -0.0000 9.8985 3.6660 -9.3890 0.0000 -0.0000 0.0000 32.4142 4.9650 -48.9010 -90.7906 59.9976 -60.6846 0.0000 -0.0000 -27.5526 -35.5192 -6.1165 4.3493 7.1250 -0.0000 -0.0000 -7.4889 -37.3860 -1.4129
0.00 0.00 0.00 -23.0434 -28.9227 338.4930 0.0000 0.0000 0.0000 13.4981 -12.7353 -42.9812 23.7869 19.6526 101.1341 0.0059 -7.0192 10.1499 0.0006 -0.1533 -0.4213 0.0000 0.0000 0.0000 9.4027 12.5493 -42.4212 -25.1819 -19.3437 105.3117 -0.0717 -6.7252 6.3177 -0.3363 -3.7268 10.3093 12.7612 8.8138 40.2817 0.9964 15.5201 12.4931 -10.3909 7.8867 -2.3172 22.7126 -8.0126 16.4466 -1.6274 -7.1172 18.2963 -3.8525 -2.1711 2.5077 0.0000 -0.0000 0.0000 -47.4415 12.7842 65.5799 95.4634 -59.8869 -64.7296 -0.0000 -0.0000 33.6078 38.8150 -11.6127 -9.1982 -7.1250 0.0000 -0.0000 7.9838 15.3019 -5.6497 0.0000 -0.0000 0.0000 31.4003 1.4630 -45.6731 -96.7519 59.8270 -65.8439 0.0000 -0.0000 -31.3475 -36.7757 -5.8176 4.3326 7.1250 -0.0000 -0.0000 -8.5437 -37.1082 -1.6738
0.00 0.00 0.00 -24.0885 -28.3764 337.4700 0.0000 0.0000 0.0000 15.5061 -12.7058 -42.7415 23.2762 19.7407 99.6188 -0.0609 -7.9516 9.9609 0.0043 -0.4215 -1.1583 0.0000 0.0000 0.0000 12.2097 12.7905 -43.7123 -24.9886 -19.3926 104.7289 -0.1361 -6.0515 7.2901 -0.0102 -0.6531 1.7947 14.8392 7.9758 40.7837 2.0724 15.4666 12.6516 -10.1945 7.9111 -2.0766 22.4978 -7.0443 11.8641 -3.8313 -7.1506 24.6661 -4.8968 -1.7895 5.0370 -0.0000 0.0000 0.0000 -43.0627 16.6855 62.3838 113.7154 -57.7644 -80.3840 -0.0000 -0.0000 37.0884 29.2493 -3.3974 -1.9008 -7.1250 0.0000 -0.0000 1.9980 26.0866 -0.9164 -0.0000 0.0000 0.0000 28.7687 -1.4293 -43.6979 -96.9642 59.8159 -66.0274 0.0000 -0.0000 -31.3879 -37.6690 -5.9744 4.5942 7.1250 -0.0000 -0.0000 -9.3205 -37.3646 -1.7700
0.00 0.00 0.00 -21.9954 -14.3982 327.5590 0.0000 0.0000 0.0000 14.4060 -5.2264 -50.5863 22.4423 19.8564 97.1574 -0.0711 -8.0375 9.8483 0.0003 0.1031 0.2832 0.0000 0.0000 0.0000 8.8818 9.9378 -50.3760 -27.3468 -18.6533 111.9552 -0.4387 -1.4450 12.0926 -0.0428 -1.3356 3.6728 15.6394 2.7917 43.0956 4.1319 9.9977 14.6961 -6.8078 5.3614 -1.8365 15.2820 -7.1386 14.1820 -1.5368 -7.7208 26.1766 -2.9978 -2.4209 5.3623 -0.0000 -0.0000 0.0000 -21.3606 4.9808 60.9613 78.8443 -59.5245 -50.3543 -0.0000 -0.0000 36.3479 38.8480 -18.9449 -14.6536 -7.1250 0.0000 -0.0000 6.7336 6.3324 -5.9924 -0.0000 -0.0000 0.0000 22.0516 1.5898 -46.0161 -101.3583 59.5069 -69.8203 0.0000 -0.0000 -27.1999 -37.2154 -8.6886 6.5448 7.1250 -0.0000 -0.0000 -9.1331 -40.6741 -0.9835
0.00 0.00 0.00 -20.9676 2.5103 327.7810 0.0000 0.0000 0.0000 13.7886 -3.6940 -58.2013 19.1541 19.9828 87.5261 -0.1998 -10.9256 12.0434 0.0150 0.7907 2.1731 0.0000 0.0000 0.0000 11.8298 14.9411 -63.4995 -25.7407 -19.1908 107.0053 -0.1286 -8.2261 8.0801 -0.8002 -5.7095 15.9439 14.6960 -2.9828 44.3060 4.9119 3.2217 14.0664 -3.2735 1.8784 -4.0495 6.6908 -8.6905 21.8977 2.4326 -9.8540 15.9514 0.2034 -4.4581 1.5449 0.0000 0.0000 0.0000 -33.2562 8.5412 57.7736 68.3530 -58.1532 -41.3694 -0.0000 -0.0000 37.8876 52.8954 -24.8698 -29.0734 -7.1250 0.0000 -0.0000 13.4586 -6.6499 -15.3332 0.0000 0.0000 0.0000 20.1985 5.7857 -57.8662 -116.4558 57.1827 -82.6947 0.0000 -0.0000 -26.8106 -38.2297 -8.6375 6.7472 7.1250 -0.0000 -0.0000 -10.0392 -40.7200 -1.0718
0.00 0.00 0.00 -1.3470 -4.3276 333.8330 0.0000 0.0000 0.0000 -5.9842 -3.5157 -52.2701 18.0370 19.9074 84.2522 0.5254 -7.1809 18.1658 0.0329 -1.1703 -3.2174 0.0000 0.0000 0.0000 14.1981 12.6688 -61.5930 -20.6410 -19.9901 91.8746 -0.1605 -5.1955 7.4860 -0.0273 -1.0665 2.9319 7.3353 0.9415 41.0131 -0.0443 3.9588 13.8666 -5.2484 2.2130 -3.7031 2.1386 -8.5289 25.5687 0.6331 -10.2255 9.6649 0.7085 -4.9362 -1.0804 0.0000 -0.0000 0.0000 -40.1516 9.5893 60.3682 57.5778 -55.6292 -32.3336 -0.0000 -0.0000 35.2846 52.8841 -26.9102 -30.8832 -7.1250 0.0000 -0.0000 12.8541 -9.2046 -15.0991 0.0000 -0.0000 0.0000 13.6680 10.0548 -61.9657 -120.4195 56.1971 -86.0077 0.0000 -0.0000 -27.2500 -27.0643 -12.8412 6.4785 7.1250 -0.0000 -0.0000 0.2201 -44.3379 0.0036
0.00 0.00 0.00 -0.1589 -5.5558 325.6580 0.0000 0.0000 0.0000 2.2148 -5.3615 -33.4016 17.7588 19.8791 83.4344 0.5772 -1.5235 14.9825 0.0001 -0.0471 -0.1293 0.0000 0.0000 0.0000 5.6411 8.9753 -31.7761 -16.9495 -19.7754 81.0488 0.0697 -14.5951 9.4312 -2.0705 -9.0113 25.8308 5.2704 1.6388 41.0355 1.6965 3.9647 17.9170 -2.2007 2.2578 0.5333 6.1630 -18.5772 29.0947 8.3462 -20.7326 -17.0872 5.3461 -10.9846 -9.6324 -0.0000 0.0000 0.0000 -53.9944 11.2133 33.4706 74.3381 -59.0526 -46.4796 -0.0000 -0.0000 43.1510 41.3606 -39.5423 -29.2707 -7.1250 0.0000 -0.0000 2.9168 -17.6922 -3.6691 -0.0000 0.0000 0.0000 -4.0019 28.1286 -71.6259 -105.7022 59.0476 -73.5550 0.0000 -0.0000 -7.6515 -19.9118 -12.6709 4.5429 7.1250 -0.0000 -0.0000 6.7179 -43.3271 0.2787
0.00 0.00 0.00 1.1121 -5.1056 319.7260 0.0000 0.0000 0.0000 -0.4926 -5.6766 -27.0777 15.1303 19.4217 75.6290 1.0335 -1.8940 19.9755 0.0009 -0.1940 -0.5331 0.0000 0.0000 0.0000 7.2221 10.9920 -26.5427 -13.7706 -19.0430 71.5027 0.2157 -17.2832 9.9519 -1.8738 -8.5982 24.5463 4.5961 1.5967 39.9276 2.2113 3.7251 16.7138 -1.2678 2.0309 -0.5858 6.5804 -18.0100 28.6947 12.4058 -18.8631 -17.1460 6.3329 -10.7134 -9.3055 0.0000 -0.0000 0.0000 -53.5101 11.0037 37.7124 68.3641 -58.1552 -41.3788 -0.0000 -0.0000 41.9736 42.3602 -35.6726 -28.0018 -7.1250 0.0000 -0.0000 4.6564 -14.0641 -5.6645 0.0000 -0.0000 0.0000 -4.8233 32.2412 -58.1601 -88.3102 59.9892 -58.5366 0.0000 -0.0000 -6.3741 -24.4241 -8.8069 3.9773 7.1250 -0.0000 -0.0000 2.1700 -39.6277 0.2875
0.00 0.00 0.00 -1.3080 -6.3800 318.9330 0.0000 0.0000 0.0000 2.3523 -4.4095 -29.8118 12.4842 18.5879 67.5155 0.8507 -0.3644 17.5675 0.0091 0.6165 1.6941 0.0000 0.0000 0.0000 13.2668 10.2294 -28.9777 -9.2273 -16.9518 56.8728 0.1650 -17.5013 10.6698 -1.0672 -6.5674 18.4400 7.5239 0.7308 39.3331 2.5852 3.7904 15.0931 -2.4238 2.1278 -1.9973 6.8296 -13.5804 6.0722 7.7393 -17.1471 -3.4727 1.9661 -8.8252 -1.9981 0.0000 -0.0000 0.0000 -55.7130 8.8266 35.8845 64.5618 -57.4078 -38.1616 -0.0000 -0.0000 42.8356 34.0766 -38.9198 -23.0241 -7.1250 0.0000 -0.0000 -0.5079 -14.2895 0.6175 0.0000 -0.0000 0.0000 -2.5545 32.3841 -50.4297 -81.7888 59.7437 -52.8950 0.0000 -0.0000 -3.1448 -24.2557 -10.0583 4.4996 7.1250 -0.0000 -0.0000 2.4473 -40.9770 0.2430
0.00 0.00 0.00 2.0168 -3.9387 317.2850 0.0000 0.0000 0.0000 -4.2596 -4.4775 -28.7870 8.8130 16.6858 55.4410 0.7178 2.2831 15.3928 0.0002 -0.0813 -0.2234 0.0000 0.0000 0.0000 10.0899 9.4751 -31.1611 -6.0849 -14.5102 45.3217 -0.0333 -15.0645 10.9439 -0.4968 -4.5190 12.5417 4.4483 1.4538 38.7120 2.6216 3.5944 14.5575 -0.7758 1.8760 -2.6456 3.0844 -7.4743 -0.5219 7.1124 -9.9209 -1.1210 1.6606 -4.9754 -0.0349 -0.0000 -0.0000 0.0000 -59.8606 7.7455 34.8534 84.1703 -59.8712 -54.9535 -0.0000 -0.0000 36.5268 14.4266 -27.2155 -6.7101 -7.1250 0.0000 -0.0000 -9.3595 2.3332 9.0944 -0.0000 -0.0000 0.0000 -0.9911 33.7093 -46.9917 -84.2078 59.8728 -54.9860 0.0000 0.0000 4.8326 -20.0304 -9.3792 3.4001 7.1250 -0.0000 -0.0000 6.0609 -39.8803 0.7681
0.00 0.00 0.00 1.3306 -3.0745 317.3710 0.0000 0.0000 0.0000 -4.6469 -5.5625 -29.9296 7.7249 15.9131 51.5656 0.5617 -1.6162 14.8341 0.3583 -3.8456 -10.6427 0.0000 0.0000 0.0000 10.1625 9.3164 -32.8697 -5.2789 -13.6912 42.0141 0.2355 -15.7246 8.3465 -0.9905 -6.3344 17.7578 4.6562 1.0398 37.9411 3.5170 3.2016 14.1893 0.1916 1.6465 -2.8596 0.6968 -6.1235 -0.7187 6.5245 -8.1028 -1.5784 1.8818 -4.0694 -0.1119 -0.0000 -0.0000 0.0000 -63.9436 5.1717 33.0900 103.8476 -59.2629 -71.9627 -0.0000 -0.0000 33.1550 26.4915 -28.8778 -13.5335 -7.1250 0.0000 -0.0000 -2.4406 -1.6372 2.5116 -0.0000 -0.0000 0.0000 -1.5740 35.2761 -50.1541 -87.0384 59.9668 -57.4354 0.0000 0.0000 8.1089 -9.0719 -3.4301 0.5473 7.1250 -0.0000 -0.0000 14.2150 -33.2006 4.2227
